<svg width="100" height="100" viewBox="0 0 100 100" fill="none" xmlns="http://www.w3.org/2000/svg">
<rect width="100" height="100" rx="50" fill="url(#paint0_linear_4258_10827)"/>
<path d="M78 62.7204C76.9963 62.7201 76.0024 62.9186 75.0752 63.3034C74.1483 63.6884 73.3061 64.2524 72.5976 64.9636C71.8891 65.6746 71.328 66.5186 70.9461 67.4468C70.5645 68.3754 70.3699 69.3698 70.3733 70.3738H29.6267C29.6302 69.3698 29.4355 68.3754 29.0538 67.4468C28.6721 66.5186 28.1109 65.6746 27.4023 64.9636C26.6938 64.2524 25.8518 63.6884 24.9248 63.3034C23.9977 62.9186 23.0038 62.7201 22 62.7204V37.2803C23.0038 37.2803 23.9977 37.0822 24.9248 36.6972C25.8518 36.3123 26.6938 35.7481 27.4023 35.0371C28.1109 34.326 28.6721 33.4821 29.0538 32.5538C29.4355 31.6254 29.6302 30.6307 29.6267 29.627H70.3733C70.3699 30.6307 70.5645 31.6254 70.9461 32.5538C71.328 33.4821 71.8891 34.326 72.5976 35.0371C73.3061 35.7481 74.1483 36.3123 75.0752 36.6972C76.0024 37.0822 76.9963 37.2803 78 37.2803" stroke="white" stroke-width="2" stroke-miterlimit="10" stroke-linecap="square"/>
<path d="M58.9067 42.1709L60.7477 46.1032L60.9745 46.5878L61.5035 46.6679L65.7422 47.3101L62.6425 50.5026L62.2908 50.8648L62.3735 51.3629L63.1025 55.755L59.3891 53.7099L58.9055 53.4436L58.4225 53.7109L54.7291 55.7548L55.4405 51.3589L55.5207 50.863L55.1708 50.5026L52.0711 47.3101L56.3098 46.6679L56.8388 46.5878L57.0657 46.1032L58.9067 42.1709Z" stroke="white" stroke-width="2"/>
<path d="M37.2803 39.8125H42.3736M37.2803 49.9992H42.3736M37.2803 60.1859H42.3736" stroke="white" stroke-width="2" stroke-miterlimit="10"/>
<defs>
<linearGradient id="paint0_linear_4258_10827" x1="0" y1="50" x2="100" y2="50" gradientUnits="userSpaceOnUse">
<stop stop-color="#960063"/>
<stop offset="1" stop-color="#FF1A58"/>
</linearGradient>
</defs>
</svg>
