<svg width="100" height="100" viewBox="0 0 100 100" fill="none" xmlns="http://www.w3.org/2000/svg">
<rect width="100" height="100" rx="50" fill="url(#paint0_linear_4258_10817)"/>
<path d="M66.5 41H59V35C59 32.6131 58.0518 30.3239 56.364 28.636C54.6761 26.9482 52.3869 26 50 26C47.6131 26 45.3239 26.9482 43.636 28.636C41.9482 30.3239 41 32.6131 41 35V41H33.5C33.1022 41 32.7206 41.158 32.4393 41.4393C32.158 41.7206 32 42.1022 32 42.5V71C32 72.66 33.34 74 35 74H65C66.66 74 68 72.66 68 71V42.5C68 42.1022 67.842 41.7206 67.5607 41.4393C67.2794 41.158 66.8978 41 66.5 41ZM42.5 35C42.5 33.0109 43.2902 31.1032 44.6967 29.6967C46.1032 28.2902 48.0109 27.5 50 27.5C51.9891 27.5 53.8968 28.2902 55.3033 29.6967C56.7098 31.1032 57.5 33.0109 57.5 35V44H56V35C56 33.4087 55.3679 31.8826 54.2426 30.7574C53.1174 29.6321 51.5913 29 50 29C48.4087 29 46.8826 29.6321 45.7574 30.7574C44.6321 31.8826 44 33.4087 44 35V44H42.5V35ZM54.5 35V41H45.5V35C45.5 33.8065 45.9741 32.6619 46.818 31.818C47.6619 30.9741 48.8065 30.5 50 30.5C51.1935 30.5 52.3381 30.9741 53.182 31.818C54.0259 32.6619 54.5 33.8065 54.5 35ZM66.5 71C66.5 71.3978 66.342 71.7794 66.0607 72.0607C65.7794 72.342 65.3978 72.5 65 72.5H35C34.6022 72.5 34.2206 72.342 33.9393 72.0607C33.658 71.7794 33.5 71.3978 33.5 71V69.5H66.5V71ZM66.5 68H33.5V43.25C33.5 42.836 33.836 42.5 34.25 42.5H41V44.75C41 45.164 41.336 45.5 41.75 45.5H44.75C44.9489 45.5 45.1397 45.421 45.2803 45.2803C45.421 45.1397 45.5 44.9489 45.5 44.75V42.5H54.5V44.75C54.5 45.164 54.836 45.5 55.25 45.5H58.25C58.4489 45.5 58.6397 45.421 58.7803 45.2803C58.921 45.1397 59 44.9489 59 44.75V42.5H65.75C66.164 42.5 66.5 42.836 66.5 43.25V68Z" fill="white"/>
<path d="M53 51.5C52.172 51.5 51.422 51.836 50.88 52.38L50 53.252L49.12 52.38C48.7005 51.961 48.1661 51.6757 47.5845 51.5601C47.0029 51.4446 46.4002 51.504 45.8523 51.7309C45.3045 51.9577 44.8361 52.3418 44.5064 52.8347C44.1768 53.3275 44.0005 53.907 44 54.5C44 55.328 44.534 56.1 45.08 56.644L49.47 61.036C49.6106 61.1765 49.8012 61.2553 50 61.2553C50.1988 61.2553 50.3894 61.1765 50.53 61.036L54.91 56.656C55.454 56.112 56 55.328 56 54.5C56 53.7044 55.6839 52.9413 55.1213 52.3787C54.5587 51.8161 53.7956 51.5 53 51.5ZM53.868 55.58L50 59.444L46.132 55.576C45.86 55.304 45.5 54.912 45.5 54.498C45.5003 54.2015 45.5884 53.9118 45.7532 53.6653C45.9181 53.4189 46.1522 53.2268 46.4262 53.1134C46.7001 53 47.0015 52.9703 47.2923 53.0281C47.5831 53.0858 47.8502 53.2285 48.06 53.438L49.47 54.84C49.6106 54.9805 49.8012 55.0593 50 55.0593C50.1988 55.0593 50.3894 54.9805 50.53 54.84L51.94 53.438C52.1498 53.2285 52.4169 53.0858 52.7077 53.0281C52.9985 52.9703 53.2999 53 53.5738 53.1134C53.8478 53.2268 54.0819 53.4189 54.2468 53.6653C54.4116 53.9118 54.4997 54.2015 54.5 54.498C54.5 54.912 54.14 55.304 53.868 55.578V55.58Z" fill="white"/>
<defs>
<linearGradient id="paint0_linear_4258_10817" x1="0" y1="50" x2="100" y2="50" gradientUnits="userSpaceOnUse">
<stop stop-color="#960063"/>
<stop offset="1" stop-color="#FF1A58"/>
</linearGradient>
</defs>
</svg>
